<?xml version="1.0" encoding="utf-8"?>
<svg xmlns="http://www.w3.org/2000/svg" width="2048" height="2048" viewBox="0 0 2048 2048">
  <!-- Velora Logo — weißes Symbol, ECHTE transparente Cutouts via evenodd. -->
  <path fill="#ffffff" fill-rule="evenodd" transform="matrix(0.999999 0.0015439 -0.0015439 0.999999 3.16211 0)" d="M1041.98 416.742C1074.01 441.607 1107.58 466.052 1140.05 490.534L1321.44 627.633L1391.64 680.601C1418.19 700.639 1446.27 720.963 1468.31 746.188C1503.13 786.513 1525.37 836.157 1532.29 888.985C1538.15 931.972 1532.99 980.564 1529.87 1024.19L1518.85 1171.86L1483.48 1637.31C1453.32 1625.45 1411.48 1613.15 1379.97 1602.11C1297.68 1573.27 1213.63 1546.87 1131.44 1517.77C1050.05 1491.44 967.012 1461.9 885.821 1434.44L517.739 1309.7C545.59 1261.47 573.754 1213.42 602.228 1165.55L769.586 880.258L946.234 579.714C977.953 525.734 1009.61 470.181 1041.98 416.742Z M1100.19 1160.16C1105.33 1162.64 1326.18 1443.46 1351.86 1473.51C1333.96 1468.45 1302.53 1456.44 1283.8 1450.09C1224.23 1429.37 1164.54 1409.02 1104.72 1389.05C1071.14 1378.95 1028.86 1363.16 994.885 1351.55L770.822 1274.92C800.483 1265.13 832.285 1253.27 862.113 1242.91L1100.19 1160.16Z M1388.18 826.603C1415.69 858.213 1424.15 915.626 1420.4 955.939C1417.48 987.318 1414.85 1018.99 1412.61 1050.4L1392.4 1342.2C1386.02 1335.5 1375.54 1321.07 1369.15 1313.07L1319.27 1251.06L1192.04 1093.45C1260.17 1008.51 1321.45 911.945 1388.18 826.603Z M1032.22 662.594C1038.91 680.501 1035.35 715.14 1033.53 734.057C1029.57 774 1025.41 813.922 1021.04 853.821C1012.54 932.314 1002.63 984.888 1039.89 1060.69C1005.96 1073.97 965.211 1087.01 930.477 1099.15L752.679 1161.98C744.955 1164.67 737.199 1167.27 729.413 1169.78C740.227 1149.78 755.237 1126.07 767.073 1106.26L836.782 989.445L1032.22 662.594Z M1143.51 636.445C1156.88 644.596 1182.49 664.665 1195.65 674.624C1230.41 700.957 1264.89 727.667 1299.07 754.75C1287.35 768.991 1273.7 788.79 1262.91 803.95L1194.24 902.519C1175.1 929.588 1153.47 959.712 1133.39 985.91C1120.04 935.72 1128.13 918.168 1133.08 867.244L1141.96 773.391C1147.11 718.632 1151.63 691.222 1143.51 636.445Z"/>
</svg>
